<svg width="80" height="80" viewBox="0 0 80 80" fill="none" xmlns="http://www.w3.org/2000/svg">
<rect width="80" height="80" fill="#040F1A"/>
<g clip-path="url(#clip0_504_46)">
<path d="M35.7352 38.7646L35.7353 38.7647C36.419 39.4483 36.419 40.5516 35.7353 41.2353L35.7353 41.2353L20.7376 56.2353C20.054 56.9189 18.9461 56.9189 18.2626 56.2353C17.5791 55.5517 17.5791 54.4483 18.2626 53.7646L18.2626 53.7646L31.4914 40.5302L32.0214 39.9999L31.4913 39.4697L18.2626 26.2377C18.2626 26.2377 18.2626 26.2377 18.2626 26.2377C17.5792 25.5541 17.5791 24.4462 18.2623 23.7625C18.2624 23.7625 18.2624 23.7625 18.2624 23.7624C18.2625 23.7624 18.2625 23.7623 18.2626 23.7623C18.9461 23.0795 20.0541 23.0795 20.7378 23.7625C20.7378 23.7625 20.7378 23.7625 20.7379 23.7626L35.7352 38.7646ZM59.5 53.25C60.4686 53.25 61.25 54.0314 61.25 55C61.25 55.9686 60.4686 56.75 59.5 56.75H37C36.0314 56.75 35.25 55.9686 35.25 55C35.25 54.0314 36.0314 53.25 37 53.25H59.5Z" stroke="#3294F8" stroke-width="1.5"/>
</g>
<defs>
<clipPath id="clip0_504_46">
<rect width="45" height="40" fill="white" transform="translate(17 20)"/>
</clipPath>
</defs>
</svg>
